<svg xmlns="http://www.w3.org/2000/svg" width="24" height="24" viewBox="0 0 24 24" fill="none" stroke="currentColor" stroke-width="2" stroke-linecap="round" stroke-linejoin="round"><path d="M20 10.999H22C22 5.869 18.127 2 12.99 2V4C17.052 4 20 6.943 20 10.999Z"></path><path d="M13 8C15.103 8 16 8.897 16 11H18C18 7.775 16.225 6 13 6V8Z"></path><path d="M16.9 21.5L13.855 20.405C13.132 20.155 12.451 20 11.76 20H11.46C7.868 20 5 17.132 5 13.54C5 13.2344 5.02 12.93 5.06 12.635C5.10671 12.2719 5.18068 11.9135 5.282 11.565C5.5 10.82 5.5 10 4.5 10C3.7 10 3 9.3 3 8.5C3 7.7 3.7 7 4.5 7C7.814 7 9.825 8.005 10.95 10.052C11.16 10.242 11.325 10.431 11.46 10.62L15 15L16.9 21.5Z"></path></svg> 